<?xml version="1.0" encoding="UTF-8"?>
<svg xmlns="http://www.w3.org/2000/svg" xmlns:xlink="http://www.w3.org/1999/xlink" width="375pt" height="374.999991pt" viewBox="0 0 375 374.999991" version="1.2">
<defs>
<clipPath id="clip1">
  <path d="M 0 136 L 375 136 L 375 368.8125 L 0 368.8125 Z M 0 136 "/>
</clipPath>
<clipPath id="clip2">
  <path d="M 0 224 L 375 224 L 375 368.8125 L 0 368.8125 Z M 0 224 "/>
</clipPath>
<clipPath id="clip3">
  <path d="M 75 6.5625 L 295 6.5625 L 295 207 L 75 207 Z M 75 6.5625 "/>
</clipPath>
</defs>
<g id="surface1">
<g clip-path="url(#clip1)" clip-rule="nonzero">
<path style=" stroke:none;fill-rule:nonzero;fill:rgb(3.919983%,61.178589%,29.019165%);fill-opacity:1;" d="M 368.4375 368.058594 L 6.5625 368.058594 C 3.441406 368.058594 0.90625 365.523438 0.90625 362.398438 L 0.90625 142.175781 C 0.90625 139.050781 3.441406 136.515625 6.5625 136.515625 C 9.683594 136.515625 12.214844 139.050781 12.214844 142.175781 L 12.214844 356.738281 L 362.785156 356.738281 L 362.785156 142.175781 C 362.785156 139.050781 365.316406 136.515625 368.4375 136.515625 C 371.5625 136.515625 374.09375 139.050781 374.09375 142.175781 L 374.09375 362.398438 C 374.09375 365.523438 371.5625 368.058594 368.4375 368.058594 "/>
</g>
<g clip-path="url(#clip2)" clip-rule="nonzero">
<path style=" stroke:none;fill-rule:nonzero;fill:rgb(3.919983%,61.178589%,29.019165%);fill-opacity:1;" d="M 368.425781 368.058594 C 367.273438 368.058594 366.101562 367.707031 365.09375 366.96875 L 187.496094 236.734375 L 9.902344 366.96875 C 7.363281 368.820312 3.84375 368.25 1.996094 365.746094 C 0.15625 363.226562 0.699219 359.679688 3.21875 357.828125 L 184.15625 225.148438 C 186.144531 223.691406 188.851562 223.691406 190.839844 225.148438 L 371.777344 357.828125 C 374.296875 359.679688 374.839844 363.226562 373 365.746094 C 371.886719 367.257812 370.171875 368.058594 368.425781 368.058594 "/>
</g>
<path style=" stroke:none;fill-rule:nonzero;fill:rgb(3.919983%,61.178589%,29.019165%);fill-opacity:1;" d="M 368.425781 147.835938 C 367.273438 147.835938 366.101562 147.484375 365.09375 146.746094 L 287.746094 90.027344 C 285.222656 88.175781 284.683594 84.632812 286.519531 82.113281 C 288.371094 79.601562 291.890625 79.03125 294.429688 80.890625 L 371.777344 137.605469 C 374.296875 139.460938 374.839844 143.003906 373 145.523438 C 371.886719 147.035156 370.171875 147.835938 368.425781 147.835938 "/>
<path style=" stroke:none;fill-rule:nonzero;fill:rgb(3.919983%,61.178589%,29.019165%);fill-opacity:1;" d="M 6.570312 147.835938 C 4.824219 147.835938 3.109375 147.03125 1.996094 145.523438 C 0.15625 143 0.703125 139.457031 3.21875 137.609375 L 78.300781 82.554688 C 80.828125 80.695312 84.359375 81.265625 86.207031 83.777344 C 88.050781 86.296875 87.503906 89.84375 84.988281 91.691406 L 9.90625 146.746094 C 8.894531 147.480469 7.726562 147.835938 6.570312 147.835938 "/>
<path style=" stroke:none;fill-rule:nonzero;fill:rgb(3.919983%,61.178589%,29.019165%);fill-opacity:1;" d="M 218.28125 257.945312 C 216.535156 257.945312 214.820312 257.140625 213.710938 255.632812 C 211.867188 253.109375 212.410156 249.566406 214.929688 247.714844 L 365.09375 137.605469 C 367.625 135.757812 371.152344 136.3125 373 138.832031 C 374.839844 141.351562 374.296875 144.898438 371.777344 146.746094 L 221.617188 256.855469 C 220.605469 257.589844 219.433594 257.945312 218.28125 257.945312 "/>
<path style=" stroke:none;fill-rule:nonzero;fill:rgb(3.919983%,61.178589%,29.019165%);fill-opacity:1;" d="M 156.71875 257.941406 C 155.5625 257.941406 154.390625 257.589844 153.382812 256.855469 L 3.21875 146.746094 C 0.703125 144.898438 0.15625 141.351562 1.996094 138.832031 C 3.847656 136.308594 7.363281 135.757812 9.90625 137.609375 L 160.066406 247.714844 C 162.585938 249.566406 163.128906 253.109375 161.289062 255.632812 C 160.175781 257.140625 158.460938 257.941406 156.71875 257.941406 "/>
<g clip-path="url(#clip3)" clip-rule="nonzero">
<path style=" stroke:none;fill-rule:nonzero;fill:rgb(3.919983%,61.178589%,29.019165%);fill-opacity:1;" d="M 289.027344 206.066406 C 285.90625 206.066406 283.371094 203.53125 283.371094 200.40625 L 283.371094 17.878906 L 87.296875 17.878906 L 87.296875 196.683594 C 87.296875 199.808594 84.765625 202.34375 81.644531 202.34375 C 78.523438 202.34375 75.988281 199.808594 75.988281 196.683594 L 75.988281 12.21875 C 75.988281 9.097656 78.523438 6.558594 81.644531 6.558594 L 289.027344 6.558594 C 292.148438 6.558594 294.679688 9.097656 294.679688 12.21875 L 294.679688 200.40625 C 294.679688 203.53125 292.148438 206.066406 289.027344 206.066406 "/>
</g>
<path style=" stroke:none;fill-rule:nonzero;fill:rgb(3.919983%,61.178589%,29.019165%);fill-opacity:1;" d="M 188.191406 102.121094 C 178.332031 102.121094 170.308594 110.152344 170.308594 120.023438 C 170.308594 129.890625 178.332031 137.917969 188.191406 137.917969 C 198.050781 137.917969 206.066406 129.890625 206.066406 120.023438 C 206.066406 110.152344 198.050781 102.121094 188.191406 102.121094 Z M 188.191406 149.238281 C 172.097656 149.238281 159 136.132812 159 120.023438 C 159 103.910156 172.097656 90.800781 188.191406 90.800781 C 204.289062 90.800781 217.375 103.910156 217.375 120.023438 C 217.375 136.132812 204.289062 149.238281 188.191406 149.238281 "/>
<path style=" stroke:none;fill-rule:nonzero;fill:rgb(3.919983%,61.178589%,29.019165%);fill-opacity:1;" d="M 185.335938 189.90625 C 147.601562 189.90625 116.910156 159.179688 116.910156 121.40625 C 116.910156 83.636719 147.601562 52.910156 185.335938 52.910156 C 223.070312 52.910156 253.761719 83.636719 253.761719 121.40625 L 253.761719 127.039062 C 253.761719 140.046875 243.1875 150.628906 230.191406 150.628906 C 217.199219 150.628906 206.628906 140.046875 206.628906 127.039062 L 206.628906 97.855469 C 206.628906 94.726562 209.160156 92.195312 212.28125 92.195312 C 215.402344 92.195312 217.9375 94.726562 217.9375 97.855469 L 217.9375 127.039062 C 217.9375 133.804688 223.4375 139.308594 230.191406 139.308594 C 236.953125 139.308594 242.453125 133.804688 242.453125 127.039062 L 242.453125 121.40625 C 242.453125 89.878906 216.832031 64.230469 185.335938 64.230469 C 153.839844 64.230469 128.21875 89.878906 128.21875 121.40625 C 128.21875 152.9375 153.839844 178.585938 185.335938 178.585938 C 196.59375 178.585938 207.476562 175.3125 216.808594 169.128906 C 219.410156 167.378906 222.925781 168.117188 224.640625 170.71875 C 226.375 173.328125 225.660156 176.835938 223.054688 178.5625 C 211.859375 185.984375 198.816406 189.90625 185.335938 189.90625 "/>
</g>
</svg>
