<?xml version="1.0" encoding="UTF-8"?>
<svg xmlns="http://www.w3.org/2000/svg" xmlns:xlink="http://www.w3.org/1999/xlink" width="375pt" height="374.999991pt" viewBox="0 0 375 374.999991" version="1.2">
<g id="surface1">
<path style=" stroke:none;fill-rule:nonzero;fill:rgb(3.919983%,61.178589%,29.019165%);fill-opacity:1;" d="M 187.5 5.859375 C 84.375 5.859375 0 90.167969 0 193.214844 C 0 272.839844 50 340.757812 119.53125 368.082031 C 126.5625 366.519531 132.8125 360.273438 132.8125 352.46875 L 132.8125 318.117188 L 112.5 318.117188 C 97.65625 318.117188 85.15625 311.09375 78.90625 300.164062 C 77.34375 297.039062 75.78125 293.136719 74.21875 289.234375 C 71.09375 280.648438 67.1875 271.28125 59.375 265.816406 C 56.25 263.472656 54.6875 258.789062 55.46875 254.886719 C 57.03125 250.984375 60.9375 247.859375 67.96875 248.640625 C 75.78125 249.421875 87.5 258.007812 94.53125 267.375 C 100.78125 275.183594 105.46875 279.867188 114.84375 279.867188 L 117.1875 279.867188 C 124.21875 279.867188 141.40625 279.867188 144.53125 276.742188 C 146.875 273.621094 148.4375 271.28125 150.78125 268.9375 C 103.90625 259.570312 77.34375 232.246094 77.34375 190.871094 C 77.34375 176.820312 81.25 162.769531 89.84375 150.277344 C 86.71875 138.570312 79.6875 108.125 94.53125 94.851562 L 96.875 92.511719 L 100 92.511719 C 120.3125 92.511719 135.15625 101.097656 144.53125 108.125 C 171.875 97.976562 203.125 97.976562 230.46875 108.125 C 239.0625 101.097656 253.90625 92.511719 275 92.511719 L 278.125 92.511719 L 280.46875 94.851562 C 295.3125 108.902344 288.28125 138.570312 285.15625 150.277344 C 292.96875 162.769531 297.65625 176.820312 297.65625 190.871094 C 297.65625 232.246094 271.09375 259.570312 225 268.9375 C 236.71875 281.429688 242.96875 300.164062 242.96875 314.996094 L 242.96875 353.246094 C 242.96875 361.054688 248.4375 367.300781 256.25 368.859375 C 325 340.757812 375 272.839844 375 193.214844 C 375 90.167969 290.625 5.859375 187.5 5.859375 Z M 187.5 5.859375 "/>
</g>
</svg>
