<?xml version="1.0" encoding="UTF-8"?>
<svg xmlns="http://www.w3.org/2000/svg" xmlns:xlink="http://www.w3.org/1999/xlink" width="375pt" height="374.999991pt" viewBox="0 0 375 374.999991" version="1.2">
<defs>
<clipPath id="clip1">
  <path d="M 21.253906 18.171875 L 362.503906 18.171875 L 362.503906 359.421875 L 21.253906 359.421875 Z M 21.253906 18.171875 "/>
</clipPath>
</defs>
<g id="surface1">
<rect x="0" y="0" width="375" height="374.999991" style="fill:rgb(100%,100%,100%);fill-opacity:1;stroke:none;"/>
<rect x="0" y="0" width="375" height="374.999991" style="fill:rgb(100%,100%,100%);fill-opacity:1;stroke:none;"/>
<rect x="0" y="0" width="375" height="374.999991" style="fill:rgb(100%,100%,100%);fill-opacity:1;stroke:none;"/>
<g clip-path="url(#clip1)" clip-rule="nonzero">
<path style=" stroke:none;fill-rule:nonzero;fill:rgb(3.919983%,61.178589%,29.019165%);fill-opacity:1;" d="M 323.402344 359.421875 L 60.355469 359.421875 C 38.785156 359.421875 21.253906 341.890625 21.253906 320.320312 L 21.253906 57.273438 C 21.253906 35.703125 38.785156 18.171875 60.355469 18.171875 L 323.402344 18.171875 C 344.972656 18.171875 362.503906 35.703125 362.503906 57.273438 L 362.503906 320.320312 C 362.503906 341.890625 344.972656 359.421875 323.402344 359.421875 Z M 60.355469 39.5 C 50.558594 39.5 42.582031 47.476562 42.582031 57.273438 L 42.582031 320.320312 C 42.582031 330.117188 50.558594 338.09375 60.355469 338.09375 L 323.402344 338.09375 C 333.199219 338.09375 341.175781 330.117188 341.175781 320.320312 L 341.175781 57.273438 C 341.175781 47.476562 333.199219 39.5 323.402344 39.5 Z M 60.355469 39.5 "/>
</g>
<path style=" stroke:none;fill-rule:nonzero;fill:rgb(3.919983%,61.178589%,29.019165%);fill-opacity:1;" d="M 252.308594 139.03125 L 131.449219 139.03125 C 125.5625 139.03125 120.785156 134.253906 120.785156 128.367188 C 120.785156 122.480469 125.5625 117.703125 131.449219 117.703125 L 252.308594 117.703125 C 258.195312 117.703125 262.972656 122.480469 262.972656 128.367188 C 262.972656 134.253906 258.195312 139.03125 252.308594 139.03125 Z M 252.308594 139.03125 "/>
<path style=" stroke:none;fill-rule:nonzero;fill:rgb(3.919983%,61.178589%,29.019165%);fill-opacity:1;" d="M 252.308594 199.460938 L 131.449219 199.460938 C 125.5625 199.460938 120.785156 194.683594 120.785156 188.796875 C 120.785156 182.910156 125.5625 178.132812 131.449219 178.132812 L 252.308594 178.132812 C 258.195312 178.132812 262.972656 182.910156 262.972656 188.796875 C 262.972656 194.683594 258.195312 199.460938 252.308594 199.460938 Z M 252.308594 199.460938 "/>
<path style=" stroke:none;fill-rule:nonzero;fill:rgb(3.919983%,61.178589%,29.019165%);fill-opacity:1;" d="M 252.308594 259.890625 L 131.449219 259.890625 C 125.5625 259.890625 120.785156 255.113281 120.785156 249.226562 C 120.785156 243.339844 125.5625 238.5625 131.449219 238.5625 L 252.308594 238.5625 C 258.195312 238.5625 262.972656 243.339844 262.972656 249.226562 C 262.972656 255.113281 258.195312 259.890625 252.308594 259.890625 Z M 252.308594 259.890625 "/>
</g>
</svg>
